HIERARCHY
ROOT root
{
	OFFSET	0	13.1	24.9
	CHANNELS 6  Xposition Yposition Zposition Xrotation Yrotation Zrotation
	JOINT spine_1
	{
		OFFSET	0	9.99999	0
		CHANNELS 3  Xrotation Yrotation Zrotation
		JOINT spine_2
		{
			OFFSET	0	112	-10
			CHANNELS 3  Xrotation Yrotation Zrotation
			JOINT spine_3
			{
				OFFSET	0	206.5	19.3
				CHANNELS 3  Xrotation Yrotation Zrotation
				JOINT spine_4
				{
					OFFSET	0	110.4	14.6
					CHANNELS 3  Xrotation Yrotation Zrotation
					JOINT neck_1
					{
						OFFSET	0	71.8	-50.3
						CHANNELS 3  Xrotation Yrotation Zrotation
						JOINT neck_2
						{
							OFFSET	0	86.2	-25.8
							CHANNELS 3  Xrotation Yrotation Zrotation
							JOINT head_ee
							{
								OFFSET	0	179.8	-8.7
								CHANNELS 3  Xrotation Yrotation Zrotation
								End Site
								{
									OFFSET	1	0	0
								}
							}
						}
					}
					JOINT left_clavicle
					{
						OFFSET	-43.2	22.4	-70.8
						CHANNELS 3  Xrotation Yrotation Zrotation
						JOINT left_shoulder
						{
							OFFSET	-93.9	-5.79999	48.7
							CHANNELS 3  Xrotation Yrotation Zrotation
							JOINT left_elbow
							{
								OFFSET	-291.4	-30.8	15.2
								CHANNELS 3  Xrotation Yrotation Zrotation
								JOINT left_lowarm_twist
								{
									OFFSET	-110.7	-3.89999	13.6
									CHANNELS 3  Xrotation Yrotation Zrotation
									JOINT left_hand
									{
										OFFSET	-110.7	-3.89999	13.6
										CHANNELS 3  Xrotation Yrotation Zrotation
										JOINT left_ee
										{
											OFFSET	-80.8	-5.10001	12.1
											CHANNELS 3  Xrotation Yrotation Zrotation
											End Site
											{
												OFFSET	1	0	0
											}
										}
									}
								}
							}
						}
					}
					JOINT right_clavicle
					{
						OFFSET	43.2	22.4	-70.8
						CHANNELS 3  Xrotation Yrotation Zrotation
						JOINT right_shoulder
						{
							OFFSET	93.9	-5.79999	48.7
							CHANNELS 3  Xrotation Yrotation Zrotation
							JOINT right_elbow
							{
								OFFSET	291.4	-30.8	15.2
								CHANNELS 3  Xrotation Yrotation Zrotation
								JOINT right_lowarm_twist
								{
									OFFSET	110.7	-3.89999	13.6
									CHANNELS 3  Xrotation Yrotation Zrotation
									JOINT right_hand
									{
										OFFSET	110.7	-3.89999	13.6
										CHANNELS 3  Xrotation Yrotation Zrotation
										JOINT right_ee
										{
											OFFSET	80.8	-5.10001	12.1
											CHANNELS 3  Xrotation Yrotation Zrotation
											End Site
											{
												OFFSET	1	0	0
											}
										}
									}
								}
							}
						}
					}
				}
			}
		}
	}
	JOINT left_hip
	{
		OFFSET	-82.8	-127.5	0.300001
		CHANNELS 3  Xrotation Yrotation Zrotation
		JOINT left_knee
		{
			OFFSET	-28.2	-396.7	2.2
			CHANNELS 3  Xrotation Yrotation Zrotation
			JOINT left_ankle
			{
				OFFSET	-11.7	-411.3	35.4
				CHANNELS 3  Xrotation Yrotation Zrotation
				JOINT left_toes
				{
					OFFSET	0	-60	-88.6
					CHANNELS 3  Xrotation Yrotation Zrotation
					JOINT left_foot_ee
					{
						OFFSET	-22.5	-16.5	-42.2
						CHANNELS 3  Xrotation Yrotation Zrotation
						End Site
						{
							OFFSET	1	0	0
						}
					}
				}
			}
		}
	}
	JOINT right_hip
	{
		OFFSET	82.8	-127.5	0.300001
		CHANNELS 3  Xrotation Yrotation Zrotation
		JOINT right_knee
		{
			OFFSET	28.2	-396.7	2.2
			CHANNELS 3  Xrotation Yrotation Zrotation
			JOINT right_ankle
			{
				OFFSET	11.7	-411.3	35.4
				CHANNELS 3  Xrotation Yrotation Zrotation
				JOINT right_toes
				{
					OFFSET	0	-60	-88.6
					CHANNELS 3  Xrotation Yrotation Zrotation
					JOINT right_foot_ee
					{
						OFFSET	22.5	-16.5	-42.2
						CHANNELS 3  Xrotation Yrotation Zrotation
						End Site
						{
							OFFSET	1	0	0
						}
					}
				}
			}
		}
	}
}
MOTION
Frames: 5
Frame Time: 0.02
3522.32360101 737.734 -1522.74574014 12.6876513825 60.9204299485 -16.3825022009 -1.44962 0.727397 3.38179 -1.44341 0.510861 3.42115 -1.40663 -0.304321 3.44564 -1.42311 0.24334 3.45048 -18.1188 10.3059 -2.69674 -18.6833 21.2697 1.59077 -0.0 0.0 -0.0 -7.72338 24.5992 -7.6085 12.2961 -24.6647 71.0983 1.53495 -37.2456 0.517275 11.2019 0.25801 -1.40542 1.67932 -7.30635 8.26379 -0.0 0.0 -0.0 9.94716 6.46985 -19.7273 11.9995 -13.4511 -73.2434 0.241377 6.8187 -0.0143799 19.5682 -0.269527 2.473 -3.12327 -17.8477 11.7627 0.0 0.0 0.0 -4.2399 2.89332 -0.323388 -16.8883 0.319706 2.56259 42.1168 25.2072 -5.37369 -14.6527 0.0 0.0 -0.0 0.0 -0.0 -12.592 35.5747 -5.50759 -4.21622 -0.150488 -0.629417 38.9151 14.8635 5.06444 14.2579 -0.0 -0.0 0.0 0.0 0.0 
3513.35756928 735.211 -1516.23698802 14.809046604 63.1646777745 -19.152749804 -1.3583 0.43752 3.54781 -1.35133 0.211023 3.56843 -1.3322 -0.626335 3.51943 -1.34947 -0.0630169 3.5741 -19.1796 9.73639 -4.15306 -19.7531 20.9059 0.197283 -0.0 0.0 -0.0 -7.62523 23.9559 -7.69391 10.5781 -24.3699 72.1585 1.42845 -35.2817 0.454275 10.6439 0.251698 -1.33442 1.4828 -5.77539 7.57408 -0.0 0.0 -0.0 10.2083 5.14217 -20.2698 14.5016 -13.0406 -72.2157 0.37749 10.592 -0.0349924 20.0456 -0.265482 2.53384 -3.11812 -18.9032 11.1409 0.0 0.0 0.0 3.84836 4.38576 -1.00869 -18.2855 0.312104 2.77682 40.9373 24.9719 -5.25611 -16.0488 0.0 0.0 -0.0 0.0 -0.0 -15.0002 35.5465 -4.31046 -5.53872 -0.188095 -0.82889 39.4914 13.491 5.07406 15.4662 -0.0 -0.0 0.0 0.0 0.0 
3499.61171863 733.733 -1511.60157333 17.5199270655 68.3638535422 -22.4041061495 -1.35859 0.403362 3.6182 -1.35132 0.172465 3.6365 -1.33425 -0.679928 3.57661 -1.35209 -0.106927 3.63901 -18.3056 10.3832 -4.19211 -18.9099 22.2122 0.274848 -0.0 0.0 -0.0 -6.96547 23.3077 -6.97339 9.00471 -24.1928 71.5056 1.16832 -30.0592 0.313708 10.0955 0.244821 -1.2647 1.42312 -4.99707 7.49527 -0.0 0.0 -0.0 10.3026 4.47896 -20.4571 16.342 -12.7808 -72.3189 0.485543 13.5243 -0.0575727 20.4721 -0.261439 2.58817 -2.75736 -17.3481 9.77005 0.0 0.0 0.0 8.08755 5.71117 -1.09898 -24.2403 0.221255 3.68564 41.3903 25.011 -5.29982 -14.3802 0.0 0.0 -0.0 0.0 -0.0 -14.5981 37.1621 -4.22782 -7.51226 -0.235625 -1.12801 39.5623 13.4261 5.07843 15.4076 -0.0 -0.0 0.0 0.0 0.0 
3491.04138235 733.331 -1505.40835627 21.2976804768 71.8418794167 -26.8197380094 -1.41335 0.409438 3.78062 -1.40541 0.168215 3.79898 -1.38749 -0.725507 3.73295 -1.40691 -0.127297 3.80057 -18.5766 10.2145 -5.1789 -19.1835 22.398 -0.660615 -0.0 0.0 -0.0 -6.67467 23.1793 -6.59995 7.49225 -23.8948 71.3782 0.99403 -26.2157 0.231467 9.82023 0.241119 -1.22974 1.30209 -3.56325 7.27126 -0.0 0.0 -0.0 10.3759 3.7937 -20.5947 17.3759 -12.5398 -72.0285 0.647929 17.7949 -0.101435 20.8832 -0.257159 2.64051 -2.60542 -16.6149 9.21684 0.0 0.0 0.0 13.59 7.60983 -1.46527 -29.7511 0.0535181 4.51442 38.4183 26.3787 -5.05833 -13.2797 0.0 0.0 -0.0 0.0 -0.0 -15.8258 38.0174 -3.34005 -7.77916 -0.241261 -1.16858 40.2021 11.952 5.0931 15.5546 -0.0 -0.0 0.0 0.0 0.0 
3479.84217242 737.924 -1496.78412449 27.2170534102 76.3712539215 -32.9705716573 -1.41718 0.286719 3.932 -1.40858 0.0361327 3.94226 -1.39916 -0.888606 3.84113 -1.41964 -0.271313 3.93309 -18.7415 9.90354 -6.34003 -19.3209 22.4023 -1.84565 -0.0 0.0 -0.0 -6.32153 23.0205 -6.14583 6.05094 -23.7297 71.4626 0.833417 -22.4331 0.165274 9.68563 0.239247 -1.21265 1.20445 -2.43545 7.07617 -0.0 0.0 -0.0 10.3322 3.24601 -20.4844 18.7708 -12.0473 -71.6348 0.77465 20.9937 -0.143531 21.0884 -0.254883 2.66662 -2.38852 -15.6489 8.36684 0.0 0.0 0.0 17.8108 9.04662 -2.75681 -34.1305 -0.136175 5.1595 36.3348 27.3714 -4.87728 -12.6275 0.0 0.0 -0.0 0.0 -0.0 -16.5782 38.7773 -2.92855 -7.40068 -0.233213 -1.11105 40.0365 11.6018 5.06949 15.5299 -0.0 -0.0 0.0 0.0 0.0 
